<svg xmlns="http://www.w3.org/2000/svg" xmlns:s="https://github.com/nturley/netlistsvg" xmlns:xlink="http://www.w3.org/1999/xlink" width="330" height="119"><style>svg{stroke:#000;fill:none}text{fill:#000;stroke:none;font-size:10px;font-weight:700;font-family:&quot;Courier New&quot;,monospace}.nodelabel{text-anchor:middle}.inputPortLabel{text-anchor:end}</style><g id="cell_$or$./cells/lsbufiso1p/sky130_fd_sc_lp__lsbufiso1p.functional.v:53$1" transform="translate(77,27)" s:height="25" s:type="or" s:width="30"><s:alias val="$or"/><s:alias val="$logic_or"/><s:alias val="$_OR_"/><path d="M0,25 L0,25 L15,25 A15 12.5 0 0 0 15,0 L0,0" class="cell_$or$./cells/lsbufiso1p/sky130_fd_sc_lp__lsbufiso1p.functional.v:53$1"/><path d="M0,0 A30 25 0 0 1 0,25" class="cell_$or$./cells/lsbufiso1p/sky130_fd_sc_lp__lsbufiso1p.functional.v:53$1"/></g><g id="cell_pwrgood_pp0" transform="translate(179,29)" s:height="40" s:type="generic" s:width="30"><text x="15" y="-4" class="nodelabel cell_pwrgood_pp0" s:attribute="ref">udp_pwrgood_pp$PG</text><rect width="30" height="60" class="cell_pwrgood_pp0" s:generic="body"/><g id="port_pwrgood_pp0~UDP_IN" s:pid="in0" s:x="0" s:y="10"><text x="-3" y="-4" class="inputPortLabel cell_pwrgood_pp0" transform="translate(0,10)">UDP_IN</text></g><g id="port_pwrgood_pp0~VGND" s:pid="in0" s:x="0" s:y="10"><text x="-3" y="-4" class="inputPortLabel cell_pwrgood_pp0" transform="translate(0,30)">VGND</text></g><g id="port_pwrgood_pp0~VPWR" s:pid="in0" s:x="0" s:y="10"><text x="-3" y="-4" class="inputPortLabel cell_pwrgood_pp0" transform="translate(0,50)">VPWR</text></g><g id="port_pwrgood_pp0~UDP_OUT" s:pid="out0" s:x="30" s:y="10"><text x="5" y="-4" class="cell_pwrgood_pp0" transform="translate(30,10)" style="fill:#000;stroke:none">UDP_OUT</text></g></g><g id="cell_X" transform="translate(288,29.5)" s:height="20" s:type="outputExt" s:width="30"><text x="15" y="-4" class="nodelabel cell_X" s:attribute="ref">X</text><s:alias val="$_outputExt_"/><path d="M30,0 L30,20 L15,20 L0,10 L15,0 Z" class="cell_X"/></g><g id="cell_A" transform="translate(12,22)" s:height="20" s:type="inputExt" s:width="30"><text x="15" y="-4" class="nodelabel cell_A" s:attribute="ref">A</text><s:alias val="$_inputExt_"/><path d="M0,0 L0,20 L15,20 L30,10 L15,0 Z" class="cell_A"/></g><g id="cell_SLEEP" transform="translate(12,87)" s:height="20" s:type="inputExt" s:width="30"><text x="15" y="-4" class="nodelabel cell_SLEEP" s:attribute="ref">SLEEP</text><s:alias val="$_inputExt_"/><path d="M0,0 L0,20 L15,20 L30,10 L15,0 Z" class="cell_SLEEP"/></g><line x1="40" x2="80" y1="32" y2="32" class="net_3"/><line x1="40" x2="52" y1="97" y2="97" class="net_4"/><line x1="52" x2="52" y1="97" y2="47" class="net_4"/><line x1="52" x2="80" y1="47" y2="47" class="net_4"/><line x1="107" x2="179" y1="39.5" y2="39.5" class="net_5"/><line x1="210" x2="288" y1="39.5" y2="39.5" class="net_2"/></svg>