<svg xmlns="http://www.w3.org/2000/svg" xmlns:s="https://github.com/nturley/netlistsvg" xmlns:xlink="http://www.w3.org/1999/xlink" width="261" height="109"><style>svg{stroke:#000;fill:none}text{fill:#000;stroke:none;font-size:10px;font-weight:700;font-family:&quot;Courier New&quot;,monospace}.nodelabel{text-anchor:middle}</style><g id="cell_$not$./cells/iso1n/sky130_fd_sc_lp__iso1n.functional.v:0$1" transform="translate(89,77)" s:height="20" s:type="not" s:width="30"><s:alias val="$_NOT_"/><s:alias val="$not"/><path d="M0,0 L0,20 L20,10 Z" class="cell_$not$./cells/iso1n/sky130_fd_sc_lp__iso1n.functional.v:0$1"/><circle cx="23" cy="10" r="3" class="cell_$not$./cells/iso1n/sky130_fd_sc_lp__iso1n.functional.v:0$1"/></g><g id="cell_$or$./cells/iso1n/sky130_fd_sc_lp__iso1n.functional.v:49$2" transform="translate(154,27)" s:height="25" s:type="or" s:width="30"><s:alias val="$or"/><s:alias val="$logic_or"/><s:alias val="$_OR_"/><path d="M0,25 L0,25 L15,25 A15 12.5 0 0 0 15,0 L0,0" class="cell_$or$./cells/iso1n/sky130_fd_sc_lp__iso1n.functional.v:49$2"/><path d="M0,0 A30 25 0 0 1 0,25" class="cell_$or$./cells/iso1n/sky130_fd_sc_lp__iso1n.functional.v:49$2"/></g><g id="cell_X" transform="translate(219,29.5)" s:height="20" s:type="outputExt" s:width="30"><text x="15" y="-4" class="nodelabel cell_X" s:attribute="ref">X</text><s:alias val="$_outputExt_"/><path d="M30,0 L30,20 L15,20 L0,10 L15,0 Z" class="cell_X"/></g><g id="cell_A" transform="translate(89,22)" s:height="20" s:type="inputExt" s:width="30"><text x="15" y="-4" class="nodelabel cell_A" s:attribute="ref">A</text><s:alias val="$_inputExt_"/><path d="M0,0 L0,20 L15,20 L30,10 L15,0 Z" class="cell_A"/></g><g id="cell_SLEEP_B" transform="translate(12,77)" s:height="20" s:type="inputExt" s:width="30"><text x="15" y="-4" class="nodelabel cell_SLEEP_B" s:attribute="ref">SLEEP_B</text><s:alias val="$_inputExt_"/><path d="M0,0 L0,20 L15,20 L30,10 L15,0 Z" class="cell_SLEEP_B"/></g><line x1="40" x2="89" y1="87" y2="87" class="net_4"/><line x1="117" x2="157" y1="32" y2="32" class="net_3"/><line x1="114" x2="129" y1="87" y2="87" class="net_5"/><line x1="129" x2="129" y1="87" y2="47" class="net_5"/><line x1="129" x2="157" y1="47" y2="47" class="net_5"/><line x1="184" x2="219" y1="39.5" y2="39.5" class="net_2"/></svg>