<svg xmlns="http://www.w3.org/2000/svg" xmlns:s="https://github.com/nturley/netlistsvg" xmlns:xlink="http://www.w3.org/1999/xlink" width="494" height="359.5"><style>svg{stroke:#000;fill:none}text{fill:#000;stroke:none;font-size:10px;font-weight:700;font-family:&quot;Courier New&quot;,monospace}.nodelabel{text-anchor:middle}.inputPortLabel{text-anchor:end}</style><g id="cell_dff0" transform="translate(233,22)" s:height="40" s:type="generic" s:width="30"><text x="15" y="-4" class="nodelabel cell_dff0" s:attribute="ref">udp_dff$P_pp$PKG$sN</text><rect width="30" height="140" class="cell_dff0" s:generic="body"/><g id="port_dff0~CLK" s:pid="in0" s:x="0" s:y="10"><text x="-3" y="-4" class="inputPortLabel cell_dff0" transform="translate(0,10)">CLK</text></g><g id="port_dff0~D" s:pid="in0" s:x="0" s:y="10"><text x="-3" y="-4" class="inputPortLabel cell_dff0" transform="translate(0,30)">D</text></g><g id="port_dff0~KAPWR" s:pid="in0" s:x="0" s:y="10"><text x="-3" y="-4" class="inputPortLabel cell_dff0" transform="translate(0,50)">KAPWR</text></g><g id="port_dff0~NOTIFIER" s:pid="in0" s:x="0" s:y="10"><text x="-3" y="-4" class="inputPortLabel cell_dff0" transform="translate(0,70)">NOTIFIER</text></g><g id="port_dff0~SLEEP_B" s:pid="in0" s:x="0" s:y="10"><text x="-3" y="-4" class="inputPortLabel cell_dff0" transform="translate(0,90)">SLEEP_B</text></g><g id="port_dff0~VGND" s:pid="in0" s:x="0" s:y="10"><text x="-3" y="-4" class="inputPortLabel cell_dff0" transform="translate(0,110)">VGND</text></g><g id="port_dff0~VPWR" s:pid="in0" s:x="0" s:y="10"><text x="-3" y="-4" class="inputPortLabel cell_dff0" transform="translate(0,130)">VPWR</text></g><g id="port_dff0~Q" s:pid="out0" s:x="30" s:y="10"><text x="5" y="-4" class="cell_dff0" transform="translate(30,10)" style="fill:#000;stroke:none">Q</text></g></g><g id="cell_mux_2to10" transform="translate(90,87.5)" s:height="40" s:type="generic" s:width="30"><text x="15" y="-4" class="nodelabel cell_mux_2to10" s:attribute="ref">udp_mux_2to1</text><rect width="30" height="60" class="cell_mux_2to10" s:generic="body"/><g id="port_mux_2to10~A0" s:pid="in0" s:x="0" s:y="10"><text x="-3" y="-4" class="inputPortLabel cell_mux_2to10" transform="translate(0,10)">A0</text></g><g id="port_mux_2to10~A1" s:pid="in0" s:x="0" s:y="10"><text x="-3" y="-4" class="inputPortLabel cell_mux_2to10" transform="translate(0,30)">A1</text></g><g id="port_mux_2to10~S" s:pid="in0" s:x="0" s:y="10"><text x="-3" y="-4" class="inputPortLabel cell_mux_2to10" transform="translate(0,50)">S</text></g><g id="port_mux_2to10~X" s:pid="out0" s:x="30" s:y="10"><text x="5" y="-4" class="cell_mux_2to10" transform="translate(30,10)" style="fill:#000;stroke:none">X</text></g></g><g id="cell_pwrgood_pp0" transform="translate(343,22)" s:height="40" s:type="generic" s:width="30"><text x="15" y="-4" class="nodelabel cell_pwrgood_pp0" s:attribute="ref">udp_pwrgood_pp$PG</text><rect width="30" height="60" class="cell_pwrgood_pp0" s:generic="body"/><g id="port_pwrgood_pp0~UDP_IN" s:pid="in0" s:x="0" s:y="10"><text x="-3" y="-4" class="inputPortLabel cell_pwrgood_pp0" transform="translate(0,10)">UDP_IN</text></g><g id="port_pwrgood_pp0~VGND" s:pid="in0" s:x="0" s:y="10"><text x="-3" y="-4" class="inputPortLabel cell_pwrgood_pp0" transform="translate(0,30)">VGND</text></g><g id="port_pwrgood_pp0~VPWR" s:pid="in0" s:x="0" s:y="10"><text x="-3" y="-4" class="inputPortLabel cell_pwrgood_pp0" transform="translate(0,50)">VPWR</text></g><g id="port_pwrgood_pp0~UDP_OUT" s:pid="out0" s:x="30" s:y="10"><text x="5" y="-4" class="cell_pwrgood_pp0" transform="translate(30,10)" style="fill:#000;stroke:none">UDP_OUT</text></g></g><g id="cell_Q" transform="translate(452,22.5)" s:height="20" s:type="outputExt" s:width="30"><text x="15" y="-4" class="nodelabel cell_Q" s:attribute="ref">Q</text><s:alias val="$_outputExt_"/><path d="M30,0 L30,20 L15,20 L0,10 L15,0 Z" class="cell_Q"/></g><g id="cell_CLK" transform="translate(90,22.5)" s:height="20" s:type="inputExt" s:width="30"><text x="15" y="-4" class="nodelabel cell_CLK" s:attribute="ref">CLK</text><s:alias val="$_inputExt_"/><path d="M0,0 L0,20 L15,20 L30,10 L15,0 Z" class="cell_CLK"/></g><g id="cell_D" transform="translate(12,88)" s:height="20" s:type="inputExt" s:width="30"><text x="15" y="-4" class="nodelabel cell_D" s:attribute="ref">D</text><s:alias val="$_inputExt_"/><path d="M0,0 L0,20 L15,20 L30,10 L15,0 Z" class="cell_D"/></g><g id="cell_SCD" transform="translate(12,153)" s:height="20" s:type="inputExt" s:width="30"><text x="15" y="-4" class="nodelabel cell_SCD" s:attribute="ref">SCD</text><s:alias val="$_inputExt_"/><path d="M0,0 L0,20 L15,20 L30,10 L15,0 Z" class="cell_SCD"/></g><g id="cell_SCE" transform="translate(12,218)" s:height="20" s:type="inputExt" s:width="30"><text x="15" y="-4" class="nodelabel cell_SCE" s:attribute="ref">SCE</text><s:alias val="$_inputExt_"/><path d="M0,0 L0,20 L15,20 L30,10 L15,0 Z" class="cell_SCE"/></g><g id="cell_SLEEP_B" transform="translate(90,195.5)" s:height="20" s:type="inputExt" s:width="30"><text x="15" y="-4" class="nodelabel cell_SLEEP_B" s:attribute="ref">SLEEP_B</text><s:alias val="$_inputExt_"/><path d="M0,0 L0,20 L15,20 L30,10 L15,0 Z" class="cell_SLEEP_B"/></g><g id="cell_1" transform="translate(90,260.5)" s:height="20" s:type="constant" s:width="30"><text x="15" y="-4" class="nodelabel cell_1" s:attribute="ref">1</text><s:alias val="$_constant_"/><rect width="30" height="20" class="cell_1"/></g><g id="cell_0" transform="translate(90,325.5)" s:height="20" s:type="constant" s:width="30"><text x="15" y="-4" class="nodelabel cell_0" s:attribute="ref">0</text><s:alias val="$_constant_"/><rect width="30" height="20" class="cell_0"/></g><line x1="118" x2="233" y1="32.5" y2="32.5" class="net_3"/><line x1="121" x2="154" y1="98" y2="98" class="net_8"/><line x1="154" x2="154" y1="98" y2="52.5" class="net_8"/><line x1="154" x2="233" y1="52.5" y2="52.5" class="net_8"/><line x1="120" x2="164" y1="270.5" y2="270.5" class="net_10"/><line x1="164" x2="164" y1="270.5" y2="72.5" class="net_10"/><circle cx="164" cy="270.5" r="2" class="net_10" style="fill:#000"/><line x1="164" x2="233" y1="72.5" y2="72.5" class="net_10"/><line x1="120" x2="164" y1="270.5" y2="270.5" class="net_10"/><line x1="164" x2="164" y1="270.5" y2="152.5" class="net_10"/><circle cx="164" cy="152.5" r="2" class="net_10" style="fill:#000"/><line x1="164" x2="233" y1="152.5" y2="152.5" class="net_10"/><line x1="120" x2="164" y1="270.5" y2="270.5" class="net_10"/><line x1="164" x2="164" y1="270.5" y2="346.5" class="net_10"/><line x1="164" x2="291" y1="346.5" y2="346.5" class="net_10"/><line x1="291" x2="291" y1="346.5" y2="72.5" class="net_10"/><line x1="291" x2="343" y1="72.5" y2="72.5" class="net_10"/><line x1="118" x2="154" y1="205.5" y2="205.5" class="net_7"/><line x1="154" x2="154" y1="205.5" y2="112.5" class="net_7"/><line x1="154" x2="233" y1="112.5" y2="112.5" class="net_7"/><line x1="120" x2="174" y1="335.5" y2="335.5" class="net_11"/><line x1="174" x2="174" y1="335.5" y2="132.5" class="net_11"/><circle cx="174" cy="335.5" r="2" class="net_11" style="fill:#000"/><line x1="174" x2="233" y1="132.5" y2="132.5" class="net_11"/><line x1="120" x2="281" y1="335.5" y2="335.5" class="net_11"/><line x1="281" x2="281" y1="335.5" y2="52.5" class="net_11"/><line x1="281" x2="343" y1="52.5" y2="52.5" class="net_11"/><line x1="40" x2="90" y1="98" y2="98" class="net_4"/><line x1="40" x2="52" y1="163" y2="163" class="net_5"/><line x1="52" x2="52" y1="163" y2="118" class="net_5"/><line x1="52" x2="90" y1="118" y2="118" class="net_5"/><line x1="40" x2="62" y1="228" y2="228" class="net_6"/><line x1="62" x2="62" y1="228" y2="138" class="net_6"/><line x1="62" x2="90" y1="138" y2="138" class="net_6"/><line x1="264" x2="343" y1="32.5" y2="32.5" class="net_9"/><line x1="374" x2="452" y1="32.5" y2="32.5" class="net_2"/></svg>