<svg xmlns="http://www.w3.org/2000/svg" xmlns:s="https://github.com/nturley/netlistsvg" xmlns:xlink="http://www.w3.org/1999/xlink" width="265" height="97"><style>svg{stroke:#000;fill:none}text{fill:#000;stroke:none;font-size:10px;font-weight:700;font-family:&quot;Courier New&quot;,monospace}.nodelabel{text-anchor:middle}.inputPortLabel{text-anchor:end}</style><g id="cell_pwrgood_pp0" transform="translate(114,22)" s:height="40" s:type="generic" s:width="30"><text x="15" y="-4" class="nodelabel cell_pwrgood_pp0" s:attribute="ref">udp_pwrgood_pp$PG</text><rect width="30" height="60" class="cell_pwrgood_pp0" s:generic="body"/><g id="port_pwrgood_pp0~UDP_IN" s:pid="in0" s:x="0" s:y="10"><text x="-3" y="-4" class="inputPortLabel cell_pwrgood_pp0" transform="translate(0,10)">UDP_IN</text></g><g id="port_pwrgood_pp0~VGND" s:pid="in0" s:x="0" s:y="10"><text x="-3" y="-4" class="inputPortLabel cell_pwrgood_pp0" transform="translate(0,30)">VGND</text></g><g id="port_pwrgood_pp0~VPWR" s:pid="in0" s:x="0" s:y="10"><text x="-3" y="-4" class="inputPortLabel cell_pwrgood_pp0" transform="translate(0,50)">VPWR</text></g><g id="port_pwrgood_pp0~UDP_OUT" s:pid="out0" s:x="30" s:y="10"><text x="5" y="-4" class="cell_pwrgood_pp0" transform="translate(30,10)" style="fill:#000;stroke:none">UDP_OUT</text></g></g><g id="cell_X" transform="translate(223,22.5)" s:height="20" s:type="outputExt" s:width="30"><text x="15" y="-4" class="nodelabel cell_X" s:attribute="ref">X</text><s:alias val="$_outputExt_"/><path d="M30,0 L30,20 L15,20 L0,10 L15,0 Z" class="cell_X"/></g><g id="cell_A" transform="translate(12,22.5)" s:height="20" s:type="inputExt" s:width="30"><text x="15" y="-4" class="nodelabel cell_A" s:attribute="ref">A</text><s:alias val="$_inputExt_"/><path d="M0,0 L0,20 L15,20 L30,10 L15,0 Z" class="cell_A"/></g><line x1="40" x2="114" y1="32.5" y2="32.5" class="net_3"/><line x1="145" x2="223" y1="32.5" y2="32.5" class="net_2"/></svg>